<?xml version="1.0" encoding="UTF-8" standalone="no"?>
<!-- Created with Inkscape (http://www.inkscape.org/) -->

<svg
   xmlns:dc="http://purl.org/dc/elements/1.1/"
   xmlns:cc="http://creativecommons.org/ns#"
   xmlns:rdf="http://www.w3.org/1999/02/22-rdf-syntax-ns#"
   xmlns:svg="http://www.w3.org/2000/svg"
   xmlns="http://www.w3.org/2000/svg"
   version="1.1"
   width="560.27875"
   height="55.435699"
   id="svg3013">
  <defs
     id="defs3015" />
  <g
     transform="translate(-142.71777,-424.64433)"
     id="layer1">
    <path
       d="m 157.61681,477.68347 12.69247,0 7.17085,-36.49086 7.17086,36.49086 12.69247,0 13.96172,-50.70525 -13.00979,0 -7.10621,35.91891 -6.72819,-35.91891 -13.8344,0 -6.72623,35.91891 -7.17281,-35.91891 -13.00978,0 z m 56.54417,-25.32031 c 0,16.50021 9.83667,26.71687 25.38495,26.71687 15.61292,0 25.5769,-10.21666 25.5769,-26.71687 0,-16.50021 -9.96398,-26.71883 -25.5769,-26.71883 -15.54827,0 -25.38495,10.21862 -25.38495,26.71883 m 13.20174,0 c 0,-10.47129 4.44237,-15.9929 12.18321,-15.9929 7.80744,0 12.31248,5.52161 12.31248,15.9929 0,10.40665 -4.44237,15.99291 -12.31248,15.99291 -7.74084,0 -12.18321,-5.52162 -12.18321,-15.99291 m 45.81826,25.32031 12.88443,0 0,-18.97407 8.69277,0 c 4.44236,0 6.60086,1.64923 7.0455,5.71161 0.5073,4.50505 -0.12732,9.01205 1.39656,13.26246 l 13.57977,0 0,-1.77656 c -2.41118,-1.26924 -1.77655,-4.88699 -2.15654,-11.10591 -0.38195,-5.96428 -1.01658,-9.20204 -6.41088,-11.2959 5.3943,-2.79313 7.93279,-6.72623 7.93279,-12.43784 0,-9.77399 -6.02892,-14.08904 -18.72139,-14.08904 l -24.24301,0 z m 12.88443,-29.00074 0,-11.55053 10.02666,0 c 4.82235,0 7.23352,1.77655 7.23352,5.45697 0,4.25238 -2.41117,6.09356 -7.61547,6.09356 z m 49.37332,29.00074 13.00978,0 0,-40.42396 14.59635,0 0,-10.28129 -42.1398,0 0,10.28129 14.53367,0 z m 33.50773,0 11.93053,0 0,-18.46676 c 0,-3.61775 -0.12732,-10.53398 -0.50731,-20.62528 l 9.51935,39.09204 12.94711,0 9.70935,-39.09204 c -0.31731,8.31279 -0.50731,13.83442 -0.50731,16.5629 l 0,22.52914 11.8659,0 0,-50.70525 -17.83214,0 -6.28356,23.22644 c -1.33192,4.887 -2.47386,9.39203 -3.36311,13.77172 -0.82463,-3.99774 -1.77655,-8.18742 -2.91849,-12.31248 l -6.66355,-24.68568 -17.89677,0 z m 78.63065,-50.70525 -18.27873,50.70525 13.45442,0 2.92043,-9.3274 16.8802,0 3.11044,9.3274 13.96172,0 -17.89677,-50.70525 z m 1.20461,30.84193 5.3943,-17.45215 5.64892,17.45215 z m 36.11086,19.86332 12.56515,0 0,-15.29365 c 0,-4.12505 -0.25464,-9.77399 -0.6973,-16.81752 3.17311,6.0916 5.90161,11.10591 8.12279,14.97633 l 9.96399,17.13484 14.02438,0 0,-50.70525 -12.56515,0 0,12.94515 c 0,4.25236 0.19,10.7886 0.56999,19.61065 -2.47386,-5.13968 -5.26699,-10.47129 -8.37546,-15.92828 l -9.584,-16.62752 -14.02439,0 z m 54.26031,0 12.56515,0 0,-15.29365 c 0,-4.12505 -0.25462,-9.77399 -0.76193,-16.81752 3.17312,6.0916 5.96625,11.10591 8.18742,14.97633 l 9.96399,17.13484 14.0244,0 0,-50.70525 -12.56516,0 0,12.94515 c 0,4.25236 0.19,10.7886 0.56998,19.61065 -2.47385,-5.13968 -5.26698,-10.47129 -8.37546,-15.92828 l -9.58399,-16.62752 -14.0244,0 z m 68.09472,0 7.10817,0 5.45699,-15.16632 19.92796,0 5.3943,15.16632 7.48816,0 -18.91138,-50.70525 -7.61549,0 z m 14.65902,-21.13257 7.99744,-22.33914 7.80547,22.33914 z m 74.1256,14.34366 1.45924,6.78891 4.50505,0 0,-27.3515 -22.14719,0 0,5.71161 15.80095,0 0,0.63463 c 0,9.96399 -6.21891,16.12022 -15.67559,16.12022 -10.40665,0 -16.94288,-7.49012 -16.94288,-20.6899 0,-13.07246 6.40891,-20.56063 17.45215,-20.56063 7.67816,0 12.75515,3.87042 14.0244,10.72396 l 6.66353,0 c -1.45923,-10.47129 -9.13936,-16.62753 -20.68793,-16.62753 -15.10562,0 -24.56033,10.21862 -24.56033,26.78152 0,16.31021 9.64668,26.65418 23.03644,26.65418 7.29818,0 13.00979,-2.72849 17.07216,-8.18547"
       id="path126"
       style="fill:#000000;fill-opacity:1;fill-rule:evenodd;stroke:none" />
  </g>
</svg>
