<?xml version="1.0" encoding="utf-8"?>
<!-- Generator: Adobe Illustrator 16.0.0, SVG Export Plug-In . SVG Version: 6.00 Build 0)  -->
<!DOCTYPE svg PUBLIC "-//W3C//DTD SVG 1.1//EN" "http://www.w3.org/Graphics/SVG/1.1/DTD/svg11.dtd">
<svg version="1.1" id="Layer_1" xmlns="http://www.w3.org/2000/svg" xmlns:xlink="http://www.w3.org/1999/xlink" x="0px" y="0px"
	 width="2551.18px" height="1133.86px" viewBox="0 0 2551.18 1133.86" enable-background="new 0 0 2551.18 1133.86"
	 xml:space="preserve">
<polygon fill="#010202" points="281.022,25.851 132.156,167.085 5.652,867.519 81.771,972.49 645.171,972.491 687.541,738.119 
	294.765,738.119 384.083,260.984 772.662,260.984 815.414,25.851 "/>
<polygon fill="#010202" points="838.318,259.456 860.455,147.236 1013.903,25.853 1552.877,25.853 1511.648,259.457 "/>
<polygon fill="#010202" points="1611.276,25.851 1571.198,259.46 2020.659,259.46 1882.295,1105.422 2174.301,1105.422 
	2327.797,155.634 2231.554,25.851 "/>
<polygon fill="#010202" points="1819.31,384.657 1552.877,384.657 1449.049,972.487 1718.156,972.487 "/>
<polygon fill="#010202" points="1157.041,596.505 1131.278,736.783 747.663,736.783 705.673,972.487 1235.297,972.487 
	1399.43,816.942 1479.584,384.66 426.073,384.659 385.992,596.504 "/>
<g>
	<defs>
		<rect id="SVGID_1_" x="35.963" y="25.851" width="2532.428" height="1079.571"/>
	</defs>
	<clipPath id="SVGID_2_">
		<use xlink:href="#SVGID_1_"  overflow="visible"/>
	</clipPath>
</g>
<path fill="#010202" d="M2431.279,827.693c0,14.653-6.91,20.682-23.291,20.682h-16.377v-39.646h16.377
	C2424.369,808.729,2431.279,813.042,2431.279,827.693 M2464.011,827.693c0-45.68-37.905-45.68-48.265-45.68h-55.154v126.695h31.02
	v-35.33h13.793l21.55,35.33h34.476l-25.85-39.644C2449.373,863.895,2464.011,851.829,2464.011,827.693 M2504.527,847.517
	c0,53.438-43.947,97.395-97.385,97.395s-97.404-43.956-97.404-97.395c0-53.44,43.967-97.394,97.404-97.394
	S2504.527,794.076,2504.527,847.517 M2532.113,847.517c0-68.95-56.023-124.983-124.971-124.983
	c-68.95,0-124.973,56.033-124.973,124.983s56.022,124.975,124.973,124.975C2476.09,972.491,2532.113,916.467,2532.113,847.517"/>
</svg>
