<svg width="157.46pt" height="32.204pt" version="1.1" viewBox="0 0 157.46 32.204" xmlns="http://www.w3.org/2000/svg">
 <style/>
 <g transform="matrix(.65599 0 0 .65599 0 .0016216)">
  <style type="text/css">.st0{fill:#FFF;}</style>
  <g id="XMLID_00000121280492575604138190000009421456146751781797_">
   <path class="st0" d="m233.99 43.75h0.7c0.71 0 1-0.26 1-0.89s-0.29-0.82-1-0.82h-0.7zm0 1.07v1.52h-1.34v-5.45h2.38c0.44 0 2.07 0 2.07 1.97 0 1.04-0.63 1.56-1.22 1.78l1.11 1.7h-1.48l-0.93-1.52z"/>
   <path class="st0" d="m229.28 43.71c0-2.96 2.41-5.37 5.38-5.37 2.96 0 5.37 2.41 5.37 5.37 0 2.97-2.41 5.38-5.37 5.38-2.97 0-5.38-2.41-5.38-5.38zm5.38-4.19c-2.3 0-4.19 1.89-4.19 4.19s1.89 4.19 4.19 4.19c2.29 0 4.19-1.89 4.19-4.19s-1.9-4.19-4.19-4.19z"/>
   <path class="st0" d="m229.64 11.64-2.23 10.84-12.06-0.05-2.38 13.3s-0.79 2.45 1.84 2.45h10.08l-2 10.84h-15s-9-0.25-8.08-10.88c0.71-3.96 7.46-38.08 7.46-38.08h12.54l-2.25 11.58z"/>
   <path class="st0" d="m202.1 11.58-2 10.63h-8.96s-2.08-0.42-2.75 3.17c-0.67 3.58-4.54 23.64-4.54 23.64l-13.04-0.06 5.21-26.77s1.84-10.65 10.95-10.65c9.12 0 15.13 0.04 15.13 0.04z"/>
   <path class="st0" d="m166.06 11.64c9.67 0 6.75 9.61 6.75 9.61l-5.46 27.71h-23.92c-11.29 0-6.83-14.33-6.83-14.33 2.12-10.34 13.5-10.15 13.5-10.15h9.42l0.62-2.81-15.83 0.04 2-10.07h19.75zm-9.34 27.86 1.13-6.37h-7.54c-2.16 0-2.04 1.16-2.04 1.16s-0.05 0.25-0.5 2.88c-0.46 2.62 1.16 2.33 1.16 2.33z"/>
   <path class="st0" d="m128.25 11.66s9.25-1 7.56 10.07c-1.69 11.06-5.19 27.29-5.19 27.29l-12.56-0.04 4.38-23.5s0.81-3.19-2.5-3.19h-4.07l-5.19 26.63-12.68-0.07 4.5-23.43s1-3.19-2.63-3.19h-3.93l-5.38 26.75h-12.56l7.37-37.32z"/>
   <path class="st0" d="m81.54 11.64-2.23 10.84-12.06-0.05-2.38 13.3s-0.79 2.45 1.84 2.45h10.08l-2 10.84h-15s-9-0.25-8.08-10.88c0.71-3.96 7.46-38.08 7.46-38.08h12.54l-2.25 11.58z"/>
   <polygon class="st0" points="55.56 0.06 53.35 10.75 40.85 10.75 43.06 0.06"/>
   <polygon class="st0" points="52.18 17.04 46.02 48.92 33.31 48.92 40.85 10.98"/>
   <path class="st0" d="m39.1 0-2.25 10.96h-14c-2.78 0-3.17 2.67-3.17 2.67l-0.7 3.41h16.7l-2.37 11.06s-10.92-0.02-14-0.02-3.17 3-3.17 3l-2.87 17.84h-13.27s4.85-26.13 6.98-37.75c2.12-11.63 11.62-11.17 11.62-11.17z"/>
  </g>
 </g>
</svg>
