<svg xmlns="http://www.w3.org/2000/svg" width="229" height="47" viewBox="0 0 229 47">
    <g fill="none" fill-rule="evenodd">
        <path fill="#3FB4E5" d="M35.416 17.056c-.84 0-1.74-.66-1.74-1.5 0-.175.06-1.018.06-1.136 0-.24-.482-.42-.84-.42-1.975 0-3.176 2.217-4.614 7.848h3.655l-.54 1.56h-3.532l-1.443 5.588c-2.094 7.19-5.163 10.807-9.554 11.07-2.215.13-3.681-1.282-3.762-2.66-.069-1.135.773-2.148 1.906-2.215.78-.047 1.597.568 1.651 1.462.013.24-.054 1.024-.047 1.205.016.3.27.463.746.433 2.512-.15 3.306-2.737 4.557-7.71l1.91-7.109c-1.162.545-2.372.794-3.76.794-4.197 0-6.951-2.879-6.951-6.834 0-6.47 6.233-12.465 12.168-12.465 2.874 0 5.269 1.376 5.269 3.534 0 1.44-1.197 2.698-2.812 2.698-1.32 0-2.04-.72-2.04-1.857 0-.898.72-1.5.72-1.98 0-.538-.599-.898-1.499-.898-3.296 0-7.132 5.094-7.132 10.247 0 3.166 1.726 5.018 4.341 5.033 1.63-.107 2.188-1.108 4.292-4.688 1.558-2.697 3.773-4.495 7.129-4.495 2.278 0 3.718 1.019 3.718 2.576 0 1.08-.78 1.92-1.856 1.92M23.323 0C10.443 0 0 10.443 0 23.33c0 12.879 10.443 23.322 23.323 23.322S46.646 36.21 46.646 23.33C46.646 10.443 36.204 0 23.323 0"/>
        <path fill="#FFF" d="M59.189 28.064c-.509.653-1.288 1.162-2.632 1.162h-.545c-1.996 0-3.266-1.27-3.266-3.086v-5.628c0-1.816 1.27-3.086 3.266-3.086h.545c1.29 0 2.069.473 2.577 1.09.255.326.437.654.437.725 0 .072-.037.128-.11.164l-.944.472c-.11.054-.236.127-.308.127-.055 0-.109-.037-.145-.109-.327-.654-.908-1.016-1.507-1.016h-.545c-.888 0-1.632.744-1.632 1.633v5.628c0 .889.744 1.634 1.632 1.634h.545c.616 0 1.18-.364 1.525-1.054.036-.072.091-.108.145-.108.073 0 .163.071.29.126l.962.49c.073.037.109.074.109.127 0 .092-.164.401-.4.709M69.534 20.512c0-.89-.744-1.634-1.635-1.634h-.544c-.889 0-1.634.745-1.634 1.634v5.628c0 .89.745 1.634 1.634 1.634h.544c.89 0 1.635-.744 1.635-1.634v-5.628zm-1.635 8.714h-.544c-1.996 0-3.266-1.272-3.266-3.086v-5.628c0-1.815 1.27-3.085 3.266-3.085h.544c1.998 0 3.268 1.27 3.268 3.085v5.628c0 1.814-1.27 3.086-3.268 3.086zM84.977 29.044h-1.27c-.127 0-.182-.055-.182-.182v-3.157c0-1.435.127-3.777.165-4.213l-.073-.018c-.074.273-.255.853-.436 1.271l-2.052 4.557c-.036.072-.09.108-.162.108h-.618c-.072 0-.128-.036-.163-.108l-2.051-4.557c-.182-.4-.363-.998-.436-1.27l-.071.017c.036.436.163 2.778.163 4.213v3.157c0 .127-.054.182-.183.182h-1.27c-.127 0-.182-.055-.182-.182V17.789c0-.127.055-.181.182-.181h1.161c.073 0 .129.036.165.108l2.74 6.481c.072.163.18.526.217.727h.055c.036-.2.145-.51.236-.727l2.74-6.481c.038-.072.091-.108.163-.108h1.162c.128 0 .182.054.182.18v11.074c0 .127-.054.182-.182.182M96.592 20.695c0-.89-.744-1.635-1.634-1.635h-1.996c-.129 0-.181.055-.181.181v3.086c0 .127.052.182.181.182h1.996c.89 0 1.634-.744 1.634-1.633v-.181zm-1.634 3.266h-1.996c-.129 0-.181.055-.181.182v4.72c0 .127-.054.181-.181.181h-1.271c-.128 0-.182-.054-.182-.18V17.788c0-.127.054-.181.182-.181h3.63c1.995 0 3.266 1.289 3.266 3.268 0 1.76-1.271 3.085-3.267 3.085zM105.974 29.134h-.545c-1.996 0-3.267-1.27-3.267-3.085V17.7c0-.127.054-.182.182-.182h1.27c.127 0 .182.055.182.182v8.35c0 .89.743 1.633 1.633 1.633h.545c.89 0 1.634-.744 1.634-1.633V17.7c0-.127.055-.182.181-.182h1.27c.127 0 .182.055.182.182v8.35c0 1.815-1.27 3.085-3.267 3.085M120.31 19.06h-2.085c-.128 0-.183.055-.183.182v9.621c0 .127-.054.182-.181.182h-1.27c-.127 0-.183-.055-.183-.182v-9.62c0-.128-.054-.183-.181-.183h-2.087c-.127 0-.181-.055-.181-.181v-1.09c0-.127.054-.18.181-.18h6.17c.129 0 .183.053.183.18v1.09c0 .126-.054.181-.182.181M131.835 29.044h-6.171c-.126 0-.182-.055-.182-.182V17.789c0-.127.056-.181.182-.181h6.171c.128 0 .182.054.182.18v1.091c0 .127-.054.18-.182.18H127.3c-.128 0-.183.055-.183.182v3.086c0 .128.055.181.183.181h3.719c.127 0 .182.055.182.183v1.089c0 .126-.055.18-.182.18h-3.72c-.127 0-.182.056-.182.183v3.267c0 .127.055.182.183.182h4.536c.128 0 .182.054.182.18v1.09c0 .127-.054.182-.182.182M143.268 20.694c0-.889-.744-1.634-1.633-1.634h-1.996c-.13 0-.182.055-.182.181v3.086c0 .127.053.182.182.182h1.996c.89 0 1.633-.744 1.633-1.633v-.182zm1.562 8.351h-1.4c-.07 0-.142-.055-.162-.128l-1.687-4.846c-.02-.073-.073-.11-.147-.11h-1.795c-.13 0-.182.055-.182.182v4.72c0 .127-.055.182-.181.182h-1.27c-.128 0-.182-.055-.182-.182V17.79c0-.127.054-.181.182-.181h3.629c1.995 0 3.267 1.271 3.267 3.268v.183c0 .979-.87 2.122-1.58 2.448-.072.037-.108.073-.108.145 0 .055.074.237.146.437l1.506 4.357c.071.217.145.38.145.453 0 .09-.054.146-.181.146zM156.743 19.06h-4.538c-.128 0-.181.055-.181.182v3.085c0 .128.053.182.18.182h3.723c.126 0 .18.054.18.182v1.089c0 .127-.054.182-.18.182h-3.722c-.128 0-.181.054-.181.18v4.721c0 .127-.054.182-.18.182h-1.272c-.126 0-.18-.055-.18-.182V17.79c0-.127.054-.18.18-.18h6.171c.128 0 .182.053.182.18v1.09c0 .126-.054.181-.182.181M165.817 29.134h-.545c-1.996 0-3.266-1.27-3.266-3.085V17.7c0-.127.054-.182.181-.182h1.272c.125 0 .18.055.18.182v8.35c0 .89.744 1.633 1.633 1.633h.545c.889 0 1.634-.744 1.634-1.633V17.7c0-.127.053-.182.18-.182h1.27c.128 0 .183.055.183.182v8.35c0 1.815-1.271 3.085-3.267 3.085M179.79 19.06h-2.087c-.127 0-.18.055-.18.182v9.621c0 .127-.055.182-.183.182h-1.269c-.128 0-.182-.055-.182-.182v-9.62c0-.128-.055-.183-.182-.183h-2.088c-.127 0-.18-.055-.18-.181v-1.09c0-.127.053-.18.18-.18h6.172c.127 0 .182.053.182.18v1.09c0 .126-.055.181-.182.181M188.502 29.134h-.545c-1.996 0-3.268-1.27-3.268-3.085V17.7c0-.127.054-.182.183-.182h1.27c.127 0 .182.055.182.182v8.35c0 .89.744 1.633 1.633 1.633h.545c.889 0 1.634-.744 1.634-1.633V17.7c0-.127.054-.182.18-.182h1.27c.128 0 .182.055.182.182v8.35c0 1.815-1.27 3.085-3.266 3.085M202.857 20.694c0-.889-.744-1.634-1.635-1.634h-1.996c-.128 0-.181.055-.181.181v3.086c0 .127.053.182.18.182h1.997c.89 0 1.635-.744 1.635-1.633v-.182zm1.561 8.351h-1.399c-.072 0-.144-.055-.162-.128l-1.688-4.846c-.019-.073-.073-.11-.146-.11h-1.797c-.128 0-.181.055-.181.182v4.72c0 .127-.054.182-.18.182h-1.273c-.127 0-.18-.055-.18-.182V17.79c0-.127.053-.181.18-.181h3.63c1.997 0 3.268 1.271 3.268 3.268v.183c0 .979-.872 2.122-1.579 2.448-.072.037-.109.073-.109.145 0 .055.073.237.145.437l1.507 4.357c.072.217.145.38.145.453 0 .09-.055.146-.18.146zM216.332 29.044h-6.17c-.127 0-.183-.055-.183-.182V17.789c0-.127.056-.181.183-.181h6.17c.128 0 .182.054.182.18v1.091c0 .127-.054.18-.182.18h-4.538c-.127 0-.181.055-.181.182v3.086c0 .128.054.181.181.181h3.722c.126 0 .18.055.18.183v1.089c0 .126-.054.18-.18.18h-3.722c-.127 0-.181.056-.181.183v3.267c0 .127.054.182.181.182h4.538c.128 0 .182.054.182.18v1.09c0 .127-.054.182-.182.182M225.39 29.225h-.763c-1.452 0-2.27-.581-2.74-1.325-.162-.254-.255-.436-.255-.527 0-.072.018-.108.093-.144l.923-.472c.092-.054.256-.145.327-.145.057 0 .11.036.146.127.308.671.906 1.034 1.506 1.034h.763c.889 0 1.632-.744 1.632-1.633 0-1.145-1.051-1.616-2.196-2.143-1.416-.635-2.994-1.361-2.994-3.485 0-1.815 1.27-3.086 3.266-3.086h.292c1.452 0 2.268.599 2.758 1.325.108.164.254.4.254.49 0 .073-.036.127-.108.164l-.981.49c-.108.055-.199.109-.272.109-.053 0-.11-.037-.145-.11-.326-.653-.907-1.016-1.506-1.016h-.292c-.887 0-1.632.745-1.632 1.634 0 1.054 1.143 1.453 2.358 2.015 1.362.618 2.832 1.452 2.832 3.613 0 1.814-1.27 3.085-3.266 3.085M35.416 17.056c-.84 0-1.74-.66-1.74-1.5 0-.175.06-1.018.06-1.136 0-.24-.482-.42-.84-.42-1.975 0-3.176 2.217-4.614 7.848h3.655l-.54 1.56h-3.532l-1.443 5.588c-2.094 7.19-5.163 10.807-9.554 11.07-2.215.13-3.681-1.282-3.762-2.66-.069-1.135.773-2.148 1.906-2.215.78-.047 1.597.568 1.651 1.462.013.24-.054 1.024-.047 1.205.016.3.27.463.746.433 2.512-.15 3.306-2.737 4.557-7.71l1.91-7.109c-1.162.545-2.372.794-3.76.794-4.197 0-6.951-2.879-6.951-6.834 0-6.47 6.233-12.465 12.168-12.465 2.874 0 5.269 1.376 5.269 3.534 0 1.44-1.197 2.698-2.812 2.698-1.32 0-2.04-.72-2.04-1.857 0-.898.72-1.5.72-1.98 0-.538-.599-.898-1.499-.898-3.296 0-7.132 5.094-7.132 10.247 0 3.166 1.726 5.018 4.341 5.033 1.63-.107 2.188-1.108 4.292-4.688 1.558-2.697 3.773-4.495 7.129-4.495 2.278 0 3.718 1.019 3.718 2.576 0 1.08-.78 1.92-1.856 1.92"/>
    </g>
</svg>
