<?xml version="1.0" encoding="UTF-8"?>
<!-- Generated by Pixelmator Pro 3.5.5 -->
<svg width="64" height="64" viewBox="0 0 64 64" xmlns="http://www.w3.org/2000/svg">
    <path id="path62" fill="#000000" stroke="none" d="M 0.211907 49.504208 L 23.079216 49.504208 L 23.079216 45.379311 L 7.77159 45.379311 L 28.659719 12.915527 L 35.366714 23.339241 L 26.597265 23.339241 L 26.597265 49.504208 L 43.376217 49.504208 C 46.161144 49.504208 48.619762 48.044666 49.953251 45.600868 L 49.953251 45.600868 C 51.287659 43.156364 51.184517 40.298347 49.677803 37.955841 L 49.677803 37.955841 L 42.926399 27.464138 L 46.150513 27.464138 C 53.653763 27.464138 59.759243 33.569149 59.759243 41.072414 L 59.759243 41.072414 C 59.759243 48.575665 53.653763 54.680679 46.150513 54.680679 L 46.150513 54.680679 L 26.597265 54.680679 L 26.597265 58.805573 L 46.150513 58.805573 C 55.928516 58.805573 63.884365 50.850414 63.884365 41.072414 L 63.884365 41.072414 C 63.884365 31.294399 55.928516 23.339241 46.150513 23.339241 L 46.150513 23.339241 L 40.271912 23.339241 L 28.659719 5.292496 Z M 30.722158 27.464138 L 38.021214 27.464138 L 46.208092 40.187569 C 46.886169 41.240997 46.933117 42.525925 46.332985 43.625141 L 46.332985 43.625141 C 45.732838 44.723438 44.627609 45.379311 43.376217 45.379311 L 43.376217 45.379311 L 30.722158 45.379311 Z"/>
    <path id="path72" fill="#000000" stroke="none" d="M 18.933741 58.805573 L 23.058636 58.805573 L 23.058636 54.680679 L 18.933741 54.680679 Z"/>
    <path id="path74" fill="#000000" stroke="none" d="M 11.481596 58.805573 L 15.60649 58.805573 L 15.60649 54.680679 L 11.481596 54.680679 Z"/>
    <path id="path76" fill="#000000" stroke="none" d="M 4.029444 58.805573 L 8.154346 58.805573 L 8.154346 54.680679 L 4.029444 54.680679 Z"/>
</svg>
