<svg
        version="1.2"
        id="svg2"
        width="64"
        height="64"
        viewBox="0 0 368.98038 310.4187"
        baseProfile="tiny-ps"
        xmlns="http://www.w3.org/2000/svg">
    <g
            id="g8"
            transform="matrix(1.3333333,0,0,-1.3333333,-519.24894,1488.8253)">
        <path
                d="m 390.353,924.524 h 98.878 v 17.836 h -66.19 l 90.32,140.373 29.001,-45.072 H 504.443 V 924.524 h 72.552 c 12.042,0 22.673,6.311 28.439,16.878 v 0 c 5.77,10.57 5.324,22.928 -1.191,33.057 v 0 l -29.193,45.366 h 13.941 c 32.444,0 58.844,-26.398 58.844,-58.842 v 0 c 0,-32.444 -26.4,-58.842 -58.844,-58.842 v 0 h -84.548 v -17.836 h 84.548 c 42.28,0 76.681,34.398 76.681,76.678 v 0 c 0,42.28 -34.401,76.678 -76.681,76.678 v 0 h -25.419 l -50.211,78.034 z m 131.926,95.301 h 31.561 l 35.4,-55.016 c 2.932,-4.555 3.135,-10.111 0.54,-14.864 v 0 c -2.595,-4.749 -7.374,-7.585 -12.785,-7.585 v 0 h -54.716 z"
                id="path62"/>
                <path
                        d="m 471.306,884.305 h 17.836 v 17.836 h -17.836 z"
                        id="path72"/>
                <path
                        d="m 439.083,884.305 h 17.836 v 17.836 h -17.836 z"
                        id="path74"/>
                <path
                        d="m 406.86,884.305 h 17.836 v 17.836 H 406.86 Z"
                        id="path76"/>
    </g>
</svg>