<?xml version="1.0" standalone="no"?>
<!DOCTYPE svg PUBLIC "-//W3C//DTD SVG 20010904//EN"
 "http://www.w3.org/TR/2001/REC-SVG-20010904/DTD/svg10.dtd">
<svg version="1.0" xmlns="http://www.w3.org/2000/svg"
 width="700.000000pt" height="700.000000pt" viewBox="0 0 700.000000 700.000000"
 preserveAspectRatio="xMidYMid meet">
<metadata>
Created by potrace 1.14, written by Peter Selinger 2001-2017
</metadata>
<g transform="translate(0.000000,700.000000) scale(0.100000,-0.100000)"
fill="#000000" stroke="none">
<path d="M3079 6335 c-30 -47 -74 -116 -99 -154 -25 -39 -69 -107 -98 -153
-29 -46 -74 -116 -100 -156 -44 -67 -155 -240 -294 -457 -31 -49 -61 -94 -65
-100 -5 -5 -61 -93 -126 -195 -65 -102 -208 -324 -318 -495 -110 -170 -237
-368 -282 -438 -45 -70 -120 -187 -167 -260 -47 -73 -128 -197 -179 -277 -51
-80 -187 -291 -302 -470 -115 -179 -263 -408 -328 -510 -65 -102 -247 -385
-405 -629 -157 -245 -286 -447 -286 -450 0 -7 2490 -8 2491 -1 4 17 3 440 -1
442 -3 0 -375 2 -827 3 -452 0 -825 4 -829 7 -5 6 711 1126 1425 2230 31 48
97 151 146 228 98 153 213 331 329 510 40 63 136 212 211 330 76 118 143 221
150 228 13 14 12 15 140 -183 32 -49 72 -112 90 -140 17 -27 134 -210 260
-405 125 -195 235 -363 243 -372 18 -22 78 -19 -500 -20 l-448 0 0 -1432 0
-1431 963 1 c1035 1 1028 1 1166 54 230 89 405 274 485 512 15 44 21 70 32
128 15 82 10 191 -13 310 -8 39 -30 103 -53 153 -24 52 -597 957 -630 994 -5
7 -10 14 -10 16 0 3 -34 56 -75 118 -41 63 -75 116 -75 119 0 3 111 5 248 4
265 -2 353 -12 519 -60 574 -166 999 -677 1060 -1274 27 -257 -18 -535 -123
-758 -19 -41 -34 -76 -34 -78 0 -22 -159 -250 -229 -328 -49 -53 -188 -172
-261 -220 -151 -102 -360 -192 -509 -221 -13 -2 -30 -6 -39 -9 -17 -5 -102
-16 -157 -21 -16 -2 -533 -3 -1147 -4 l-1118 -1 0 -225 0 -225 478 -1 c1226
-1 1773 0 1809 5 21 3 65 8 98 11 33 4 92 13 130 21 39 9 78 17 88 19 10 2 27
7 37 10 10 3 27 8 37 10 58 11 244 86 343 137 501 261 863 716 999 1257 58
230 73 545 36 764 -3 15 -7 42 -10 60 -3 17 -17 75 -30 127 -135 538 -512
1002 -1023 1258 -56 28 -104 52 -107 52 -3 0 -21 6 -41 15 -98 41 -309 96
-419 110 -27 4 -61 9 -75 12 -14 3 -207 7 -430 9 -223 2 -410 3 -416 4 -9 0
-312 461 -449 682 -30 48 -233 363 -331 513 -110 169 -407 631 -418 650 -16
28 -47 76 -67 102 -16 22 -17 22 -70 -62z m1083 -2345 c8 -10 59 -89 158 -245
57 -88 129 -200 161 -250 518 -802 605 -941 619 -994 39 -147 -21 -308 -148
-398 -94 -67 -79 -66 -872 -67 l-715 0 -3 980 -2 979 399 0 c220 0 401 -2 403
-5z"/>
<path d="M440 795 l0 -225 33 -1 c117 -2 409 0 412 3 4 4 7 143 6 326 l-1 122
-225 0 -225 0 0 -225z"/>
<path d="M1256 803 c1 -120 2 -221 3 -225 0 -5 102 -8 225 -8 l224 0 1 225 1
225 -228 0 -227 0 1 -217z"/>
<path d="M2070 795 l0 -225 225 0 225 0 1 35 c0 19 0 109 0 200 0 91 0 176 0
190 l-1 25 -225 0 -225 0 0 -225z"/>
</g>
</svg>
